<svg width="1280" height="720" viewBox="0 0 1280 720" fill="none" xmlns="http://www.w3.org/2000/svg">
  <defs>
    <linearGradient id="bg" x1="0" y1="0" x2="1" y2="1">
      <stop offset="0%" stop-color="#F8FAFC" />
      <stop offset="100%" stop-color="#EEF2F7" />
    </linearGradient>
    <linearGradient id="accent" x1="0" y1="0" x2="1" y2="1">
      <stop offset="0%" stop-color="#0F172A" />
      <stop offset="100%" stop-color="#1E293B" />
    </linearGradient>
    <linearGradient id="soft" x1="0" y1="0" x2="1" y2="1">
      <stop offset="0%" stop-color="#E2E8F0" />
      <stop offset="100%" stop-color="#CBD5E1" />
    </linearGradient>
  </defs>

  <rect width="1280" height="720" rx="24" fill="url(#bg)" />

  <rect x="48" y="48" width="1184" height="624" rx="22" fill="white" stroke="#E5E7EB" />
  <rect x="48" y="48" width="1184" height="72" rx="22" fill="#F8FAFC" />

  <circle cx="92" cy="84" r="6" fill="#CBD5E1" />
  <circle cx="112" cy="84" r="6" fill="#CBD5E1" />
  <circle cx="132" cy="84" r="6" fill="#CBD5E1" />

  <rect x="76" y="140" width="230" height="512" rx="16" fill="#F8FAFC" stroke="#E5E7EB" />
  <rect x="100" y="174" width="120" height="14" rx="7" fill="#E2E8F0" />
  <rect x="100" y="206" width="180" height="12" rx="6" fill="#E2E8F0" />
  <rect x="100" y="232" width="160" height="12" rx="6" fill="#E2E8F0" />
  <rect x="100" y="258" width="172" height="12" rx="6" fill="#E2E8F0" />
  <rect x="100" y="284" width="150" height="12" rx="6" fill="#E2E8F0" />
  <rect x="100" y="320" width="172" height="12" rx="6" fill="#E2E8F0" />
  <rect x="100" y="346" width="150" height="12" rx="6" fill="#E2E8F0" />
  <rect x="100" y="372" width="160" height="12" rx="6" fill="#E2E8F0" />

  <rect x="334" y="140" width="876" height="92" rx="16" fill="#F8FAFC" stroke="#E5E7EB" />
  <rect x="362" y="170" width="220" height="16" rx="8" fill="#E2E8F0" />
  <rect x="362" y="194" width="360" height="10" rx="5" fill="#E2E8F0" />
  <rect x="1042" y="162" width="140" height="36" rx="18" fill="url(#accent)" />
  <circle cx="1000" cy="180" r="16" fill="#E2E8F0" />

  <rect x="334" y="252" width="260" height="140" rx="16" fill="#F8FAFC" stroke="#E5E7EB" />
  <rect x="606" y="252" width="260" height="140" rx="16" fill="#F8FAFC" stroke="#E5E7EB" />
  <rect x="878" y="252" width="332" height="140" rx="16" fill="#F8FAFC" stroke="#E5E7EB" />

  <rect x="360" y="280" width="120" height="12" rx="6" fill="#E2E8F0" />
  <rect x="360" y="302" width="80" height="18" rx="9" fill="url(#soft)" />

  <rect x="632" y="280" width="120" height="12" rx="6" fill="#E2E8F0" />
  <rect x="632" y="302" width="90" height="18" rx="9" fill="url(#soft)" />

  <rect x="904" y="280" width="120" height="12" rx="6" fill="#E2E8F0" />
  <rect x="904" y="302" width="110" height="18" rx="9" fill="url(#soft)" />
  <rect x="904" y="330" width="220" height="6" rx="3" fill="#E2E8F0" />
  <rect x="904" y="342" width="200" height="6" rx="3" fill="#E2E8F0" />
  <rect x="904" y="354" width="180" height="6" rx="3" fill="#E2E8F0" />

  <rect x="334" y="412" width="540" height="240" rx="16" fill="#F8FAFC" stroke="#E5E7EB" />
  <rect x="362" y="440" width="120" height="12" rx="6" fill="#E2E8F0" />
  <polyline points="360,610 430,560 500,580 570,520 640,540 710,500 840,520" fill="none" stroke="#94A3B8" stroke-width="3" stroke-linecap="round" stroke-linejoin="round" />
  <rect x="362" y="628" width="480" height="6" rx="3" fill="#E2E8F0" />

  <rect x="892" y="412" width="318" height="240" rx="16" fill="#F8FAFC" stroke="#E5E7EB" />
  <rect x="920" y="440" width="150" height="12" rx="6" fill="#E2E8F0" />
  <rect x="920" y="468" width="260" height="10" rx="5" fill="#E2E8F0" />
  <rect x="920" y="490" width="230" height="10" rx="5" fill="#E2E8F0" />
  <rect x="920" y="512" width="250" height="10" rx="5" fill="#E2E8F0" />
  <rect x="920" y="534" width="200" height="10" rx="5" fill="#E2E8F0" />
  <rect x="920" y="556" width="240" height="10" rx="5" fill="#E2E8F0" />
</svg>
